# xmcd
#
# Track frame offsets:
#	150
#	13569
#	26576
#	40838
#	53550
#	64300
#	75017
#	90539
#	104112
#	118437
#	132247
#	144438
#	159005
#	172701
#	183858
#	192147
#	205409
#	215009
#	224202
#	233284
#	241983
#	250458
#	259390
#	270554
#	280483
#	286730
#	294363
#	299261
#	314593
#	327525
#	339993
#
# Disc length: 4658 seconds
#
# Revision: 2
# Processed by: cddbd v1.5.2PL0 Copyright (c) Steve Scherf et al.
# Submitted via: audiograbber 1.83.01
#
DISCID=d212301f
DTITLE=Frank Ifield - The Yodelling Cowboy Years
DYEAR=2006
DGENRE=Country
TTITLE0=Did You See My Daddy Over There
TTITLE1=Broken Dreams
TTITLE2=Abdul Abulbul Amir
TTITLE3=I Won't Be At Home
TTITLE4=Going Back To Birmingham
TTITLE5=Little Old Band Of Gold
TTITLE6=Rocking Alone In An Old Rocking Chair
TTITLE7=Don't Trade Your Love For Gold
TTITLE8=Satisfied Mind
TTITLE9=Yellow Roses
TTITLE10=Troubled Heart
TTITLE11=Suvla Bay
TTITLE12=Yodelling Craze
TTITLE13=Anna Marie
TTITLE14=Riding Down The Canyon
TTITLE15=These Hands
TTITLE16=Streamlined Yodel Song
TTITLE17=Little White Duck
TTITLE18=She Taught Me How To Yodel
TTITLE19=Blue Tail Fly
TTITLE20=On The Mississippi Shore
TTITLE21=Jingle Jangle Jingle
TTITLE22=My Sweetheart's In Love With A Swiss Mountaineer
TTITLE23=Yodelling Mad
TTITLE24=Craven A Jingle
TTITLE25=Whiplash Theme
TTITLE26=Cattle Carters Theme
TTITLE27=The Anzac's Last Letter
TTITLE28=High Noon (Do Not Forsake Me)
TTITLE29=Blue Shadows On The Trial
TTITLE30=Blue Suede Shoes
EXTD=
EXTT0=
EXTT1=
EXTT2=
EXTT3=
EXTT4=
EXTT5=
EXTT6=
EXTT7=
EXTT8=
EXTT9=
EXTT10=
EXTT11=
EXTT12=
EXTT13=
EXTT14=
EXTT15=
EXTT16=
EXTT17=
EXTT18=
EXTT19=
EXTT20=
EXTT21=
EXTT22=
EXTT23=
EXTT24=
EXTT25=
EXTT26=
EXTT27=
EXTT28=
EXTT29=
EXTT30=
PLAYORDER=
